<?xml version="1.0" encoding="UTF-8"?>
<svg version="1.1" xmlns="http://www.w3.org/2000/svg" width="1024" height="1024">
<path d="M0 0 C16.55252739 12.03968741 27.09220538 28.66337838 30.984375 48.8359375 C33.56435196 68.13576516 30.08071659 87.46573802 18.29296875 103.30078125 C17.69742188 104.06132813 17.101875 104.821875 16.48828125 105.60546875 C15.95460938 106.30414062 15.4209375 107.0028125 14.87109375 107.72265625 C7.3586013 116.96050582 -2.74953251 122.83722234 -13.51171875 127.60546875 C-14.21296875 127.92386719 -14.91421875 128.24226562 -15.63671875 128.5703125 C-33.13083073 135.43811818 -52.38975765 132.81532047 -69.51171875 126.60546875 C-71.26355469 125.75082031 -71.26355469 125.75082031 -73.05078125 124.87890625 C-79.90664732 122.35631896 -86.44400808 125.39713464 -93.07421875 127.60546875 C-104.12555572 131.26908632 -104.12555572 131.26908632 -108.51171875 131.60546875 C-111.51171875 129.79296875 -111.51171875 129.79296875 -113.51171875 126.60546875 C-113.69397213 121.69421971 -111.7348278 117.12040053 -109.98828125 112.609375 C-109.71669189 111.9078833 -109.44510254 111.2063916 -109.1652832 110.48364258 C-108.61340191 109.08719867 -108.04469606 107.6972633 -107.45776367 106.31518555 C-104.75499023 99.65416211 -105.93232095 95.61022256 -108.63208008 89.15258789 C-108.90173584 88.51828857 -109.1713916 87.88398926 -109.44921875 87.23046875 C-116.75764856 69.32729718 -117.39799897 50.94719469 -110.765625 32.54296875 C-102.15437081 12.36956329 -87.44303022 -0.99046053 -67.51171875 -9.39453125 C-64.21021744 -10.60844204 -60.94325649 -11.6270339 -57.51171875 -12.39453125 C-56.76792969 -12.575 -56.02414063 -12.75546875 -55.2578125 -12.94140625 C-35.78665827 -16.15428518 -16.08073466 -11.21859852 0 0 Z M-73.51171875 27.60546875 C-74.12917969 28.13011719 -74.74664062 28.65476562 -75.3828125 29.1953125 C-83.08763865 36.2373579 -86.73922878 45.28720981 -87.51171875 55.60546875 C-87.63452731 68.31615445 -84.71742213 77.18039681 -75.84765625 86.3515625 C-75.07679688 87.09535156 -74.3059375 87.83914063 -73.51171875 88.60546875 C-72.90585938 89.19457031 -72.3 89.78367187 -71.67578125 90.390625 C-59.62678362 100.67699634 -41.61118337 101.53114456 -26.51171875 100.60546875 C-18.04418578 99.71926242 -8.34091425 98.04007064 -1.51171875 92.60546875 C-0.11719389 90.14951069 -0.11719389 90.14951069 0.48828125 87.60546875 C0.15828125 86.94546875 -0.17171875 86.28546875 -0.51171875 85.60546875 C-4.88460426 85.99416968 -8.43338858 86.90310206 -12.51171875 88.54296875 C-19.35148879 91.13736428 -26.26038041 91.93725668 -33.51171875 92.60546875 C-34.26324219 92.67894531 -35.01476562 92.75242187 -35.7890625 92.828125 C-45.6348709 93.30688524 -55.41361673 89.99283767 -63.51171875 84.60546875 C-64.39859375 84.04859375 -65.28546875 83.49171875 -66.19921875 82.91796875 C-73.00889458 76.10829292 -76.34669559 67.81087699 -76.88671875 58.29296875 C-76.69883118 50.54931679 -73.67402748 43.32088199 -68.51171875 37.60546875 C-68.51171875 36.94546875 -68.51171875 36.28546875 -68.51171875 35.60546875 C-67.85171875 35.60546875 -67.19171875 35.60546875 -66.51171875 35.60546875 C-66.51171875 34.94546875 -66.51171875 34.28546875 -66.51171875 33.60546875 C-65.85171875 33.35796875 -65.19171875 33.11046875 -64.51171875 32.85546875 C-61.40318302 31.56024553 -58.45651341 30.07154911 -55.4765625 28.5078125 C-46.92784245 24.58185956 -33.3671115 25.36598195 -24.6484375 28.578125 C-15.4839476 32.98445196 -10.86231348 39.72898192 -7.13671875 49.04296875 C-5.97116065 55.68664993 -5.36419615 62.44912794 -8.51171875 68.60546875 C-12.34078114 70.65357189 -14.12028402 70.69385724 -18.38671875 69.73046875 C-19.41796875 69.35921875 -20.44921875 68.98796875 -21.51171875 68.60546875 C-21.35123047 67.57099609 -21.35123047 67.57099609 -21.1875 66.515625 C-20.15119372 58.39232093 -20.80299456 51.9855984 -25.69921875 45.23046875 C-30.41830282 40.82599028 -35.05205482 39.47590677 -41.44921875 39.16796875 C-48.29387268 39.4101642 -53.37452538 41.69563638 -58.44921875 46.23046875 C-61.78475742 51.68862293 -63.23333576 57.43412008 -61.94921875 63.79296875 C-60.27585069 69.09196761 -57.40188321 73.25535128 -52.88671875 76.48046875 C-47.20141321 79.17350821 -41.70733777 79.21796341 -35.51171875 78.60546875 C-33.20965847 77.72319766 -31.29168785 76.72531705 -29.23046875 75.3828125 C-26.93771398 74.34586205 -25.82939009 74.73515951 -23.51171875 75.60546875 C-22.81046875 76.12109375 -22.10921875 76.63671875 -21.38671875 77.16796875 C-17.09584611 79.31340507 -13.21549288 79.37718169 -8.51171875 78.60546875 C-3.91981063 76.64868972 -0.53981649 73.28666423 1.703125 68.80078125 C5.59674672 57.91413744 5.03871651 46.48871012 0.80078125 35.79296875 C-4.28157912 25.64686472 -11.64329321 20.97389135 -22.13671875 17.35546875 C-39.8445632 13.6275015 -59.51329228 15.27139872 -73.51171875 27.60546875 Z " fill="#FE7418" transform="translate(278.51171875,427.39453125)"/>
<path d="M0 0 C4.60783115 4.60783115 7.88867513 9.63681366 8.05810547 16.27734375 C7.53303579 22.90584481 5.62065101 27.57243955 2.25 33.25 C1.76192871 34.10352051 1.27385742 34.95704102 0.77099609 35.83642578 C-0.7998858 38.56945236 -2.39720975 41.2855816 -4 44 C-5.05488909 45.80456967 -6.10957677 47.6092571 -7.1640625 49.4140625 C-9.86869776 54.02447118 -12.60003423 58.61853755 -15.33837891 63.20898438 C-17.54715313 66.91905004 -19.73952545 70.63867355 -21.93115234 74.35888672 C-23.55001659 77.10383312 -25.1749637 79.84510507 -26.80078125 82.5859375 C-28.94522787 86.20375277 -31.06437818 89.83485569 -33.16796875 93.4765625 C-47.37435909 117.91780828 -47.37435909 117.91780828 -59.44140625 121.44921875 C-67.57101739 123.19925718 -75.74041056 121.28244384 -82.8125 116.9375 C-87.88117872 112.90177476 -90.45748489 107.34771521 -91.48046875 101.03515625 C-92.06286531 88.80482842 -84.44152387 79.19141729 -78.25 69.125 C-77.50421945 67.90577391 -76.75886676 66.68628601 -76.01391602 65.46655273 C-74.46351919 62.92870115 -72.91129157 60.39198276 -71.35791016 57.85595703 C-69.02466009 54.04384403 -66.70379589 50.22430368 -64.38671875 46.40234375 C-64.01159149 45.78363403 -63.63646423 45.16492432 -63.24996948 44.52746582 C-62.1457016 42.70587804 -61.04159694 40.88419139 -59.9375 39.0625 C-55.88225606 32.37356716 -51.8192055 25.6895593 -47.7265625 19.0234375 C-46.78224365 17.48502197 -46.78224365 17.48502197 -45.81884766 15.91552734 C-34.43000302 -2.34025556 -34.43000302 -2.34025556 -25 -5 C-16.18372588 -6.85736112 -7.29082871 -5.35652722 0 0 Z " fill="#FE751A" transform="translate(644,433)"/>
<path d="M0 0 C1.09183594 0.03544922 2.18367187 0.07089844 3.30859375 0.10742188 C4.86900391 0.17219727 4.86900391 0.17219727 6.4609375 0.23828125 C7.87705322 0.29495972 7.87705322 0.29495972 9.32177734 0.3527832 C11.625 0.6875 11.625 0.6875 13.625 2.6875 C15.46421414 3.45360012 17.32147784 4.17673117 19.1875 4.875 C25.21489266 7.33354174 29.77874667 10.38598057 34.625 14.6875 C35.22828125 15.17476563 35.8315625 15.66203125 36.453125 16.1640625 C45.19353204 23.84144706 51.38829204 37.22976448 52.625 48.6875 C54.07030115 73.48941313 54.07030115 73.48941313 49.625 84.6875 C49.05652344 86.14929688 49.05652344 86.14929688 48.4765625 87.640625 C43.22214801 99.48583685 34.3657636 109.08777173 22.625 114.6875 C21.42423828 115.26757812 21.42423828 115.26757812 20.19921875 115.859375 C2.59759143 123.60745975 -16.51427615 121.94463629 -34.1796875 115.6953125 C-47.48878603 109.86992432 -57.98458792 97.34045193 -63.1875 84.0625 C-69.03556362 66.26740213 -68.69724756 48.02820788 -61.09375 30.78125 C-54.42919371 17.60023867 -44.3288344 8.17604397 -30.28930664 3.4777832 C-20.00802799 0.22345816 -10.76522767 -0.47398168 0 0 Z M-36.6328125 28.06640625 C-44.47038021 38.00074023 -46.69026675 47.97050794 -46.8125 60.375 C-46.8228125 61.2417334 -46.833125 62.1084668 -46.84375 63.00146484 C-46.74277192 70.39109715 -45.52484171 77.46273743 -41.375 83.6875 C-40.94574219 84.87666016 -40.94574219 84.87666016 -40.5078125 86.08984375 C-37.59781954 92.76275864 -31.00194652 97.9391046 -24.4921875 100.93359375 C-13.21228094 104.95023944 0.11771117 105.84325744 11.30078125 100.9453125 C21.92144066 95.19766152 27.97718797 87.15472448 31.625 75.6875 C34.46914064 65.10202292 34.08596758 50.6833718 29.625 40.6875 C29.191875 39.65625 28.75875 38.625 28.3125 37.5625 C22.41316585 27.51178255 15.05513027 20.84551537 3.625 17.6875 C-10.6158288 14.83933424 -26.27797975 17.15621049 -36.6328125 28.06640625 Z " fill="#242424" transform="translate(840.375,431.3125)"/>
<path d="M0 0 C5.17080404 5.00459963 5.17080404 5.00459963 6.4375 8.8046875 C2.1475 11.1146875 -2.1425 13.4246875 -6.5625 15.8046875 C-6.5625 16.4646875 -6.5625 17.1246875 -6.5625 17.8046875 C-10.84658178 17.32867841 -12.65164066 14.78485301 -15.5625 11.8046875 C-24.08282265 5.0676882 -35.88636172 2.93089642 -46.5625 3.8046875 C-53.82399972 4.93484738 -60.07493001 6.46146217 -66.07421875 10.81640625 C-67.5625 11.8046875 -67.5625 11.8046875 -69.5625 11.8046875 C-69.5625 12.4646875 -69.5625 13.1246875 -69.5625 13.8046875 C-70.2225 13.8046875 -70.8825 13.8046875 -71.5625 13.8046875 C-71.99755859 14.67867188 -71.99755859 14.67867188 -72.44140625 15.5703125 C-73.12823572 16.93918518 -73.82194299 18.30466671 -74.52734375 19.6640625 C-81.79930541 33.79912051 -83.70224483 48.24083916 -79.5625 63.8046875 C-76.07431836 73.14475281 -71.5676241 79.84843746 -62.5234375 84.30078125 C-48.44203414 90.34790459 -32.68803722 91.14863246 -18.15625 85.875 C-17.3003125 85.52179688 -16.444375 85.16859375 -15.5625 84.8046875 C-13.9125 84.1446875 -12.2625 83.4846875 -10.5625 82.8046875 C-10.2325 75.5446875 -9.9025 68.2846875 -9.5625 60.8046875 C-19.4625 60.8046875 -29.3625 60.8046875 -39.5625 60.8046875 C-40.68839491 57.42700276 -40.69544275 54.79656678 -40.6875 51.2421875 C-40.69136719 49.50775391 -40.69136719 49.50775391 -40.6953125 47.73828125 C-40.5625 44.8046875 -40.5625 44.8046875 -39.5625 42.8046875 C-33.72754217 42.77985301 -27.89261554 42.76176401 -22.05761719 42.74975586 C-20.07518986 42.74474647 -18.09276618 42.7379371 -16.11035156 42.72924805 C-13.25064182 42.71703321 -10.3909812 42.71142511 -7.53125 42.70703125 C-6.65384155 42.70186996 -5.77643311 42.69670868 -4.87243652 42.69139099 C0.32375006 42.69092391 5.29467573 43.05252342 10.4375 43.8046875 C9.4475 44.2996875 9.4475 44.2996875 8.4375 44.8046875 C8.67218994 46.02309326 8.67218994 46.02309326 8.91162109 47.26611328 C9.88619002 53.82386721 9.89932286 60.43286364 10.00732422 67.05322266 C10.04404272 68.8010884 10.09867387 70.54867155 10.17138672 72.29541016 C10.76286696 86.76078169 10.76286696 86.76078169 7.58081055 91.66796875 C5.30440542 93.73678091 3.10826248 95.29035504 0.4375 96.8046875 C-0.50996094 97.44921875 -1.45742188 98.09375 -2.43359375 98.7578125 C-21.68370727 108.48541933 -42.96624163 109.07667406 -63.5625 103.8046875 C-65.55916517 103.45192795 -67.55845532 103.11277198 -69.5625 102.8046875 C-69.5625 102.1446875 -69.5625 101.4846875 -69.5625 100.8046875 C-70.7690625 100.52625 -70.7690625 100.52625 -72 100.2421875 C-83.88873732 95.4449777 -93.14437219 84.26403221 -98.34375 72.83984375 C-104.27403267 58.07115903 -103.35694535 42.382977 -101.5625 26.8046875 C-100.9025 26.8046875 -100.2425 26.8046875 -99.5625 26.8046875 C-99.44003906 26.07636719 -99.31757812 25.34804688 -99.19140625 24.59765625 C-96.45367126 12.43939218 -87.50963828 2.43335733 -77.49609375 -4.44140625 C-53.78729195 -18.6161759 -21.32174052 -18.26649112 0 0 Z " fill="#242424" transform="translate(757.5625,445.1953125)"/>
<path d="M0 0 C30.03 0 60.06 0 91 0 C91.73741485 3.68707426 92.24861109 7.09067437 92.5625 10.8125 C92.64628906 11.78832031 92.73007812 12.76414062 92.81640625 13.76953125 C92.87699219 14.50558594 92.93757812 15.24164063 93 16 C89.51893486 17.16035505 86.8152767 17.12002704 83.1418457 17.11352539 C82.44890411 17.11367142 81.75596252 17.11381744 81.04202271 17.1139679 C78.75324363 17.11327163 76.4645461 17.1054926 74.17578125 17.09765625 C72.58823186 17.09579106 71.00068189 17.09436763 69.41313171 17.09336853 C65.2357728 17.08955134 61.05844869 17.07972786 56.88110352 17.06866455 C51.8684028 17.05663426 46.85569045 17.05204439 41.84297943 17.04621124 C34.22862876 17.03651569 26.61435443 17.01735356 19 17 C19 29.21 19 41.42 19 54 C40.78 54 62.56 54 85 54 C86.125 61.875 86.125 61.875 85.5625 65.9375 C85.40974609 67.09572266 85.40974609 67.09572266 85.25390625 68.27734375 C85.17011719 68.84582031 85.08632813 69.41429687 85 70 C81.56942091 71.04644 78.43123127 71.12079519 74.85449219 71.11352539 C73.61350769 71.11344986 72.37252319 71.11337433 71.09393311 71.11329651 C69.74491333 71.10819031 68.39589396 71.10297432 67.046875 71.09765625 C65.66253714 71.09579024 64.27819862 71.0943672 62.89385986 71.09336853 C59.25738692 71.08955773 55.62095418 71.07973975 51.98449707 71.06866455 C48.27092034 71.0584195 44.5573369 71.05380944 40.84375 71.04882812 C33.56246455 71.03864736 26.28128935 71.01907206 19 71 C19 85.85 19 100.7 19 116 C12.73 116 6.46 116 0 116 C-0.7016562 90.85314311 -1.1070502 65.7197589 -1.125 40.5625 C-1.12749756 39.33870636 -1.12999512 38.11491272 -1.13256836 36.85403442 C-1.13850441 33.3206302 -1.13695642 29.78731161 -1.1328125 26.25390625 C-1.13479645 25.222052 -1.1367804 24.19019775 -1.13882446 23.1270752 C-1.11449495 15.33690753 -0.55874913 7.82248783 0 0 Z " fill="#252425" transform="translate(454,434)"/>
<path d="M0 0 C0.83724609 -0.01224609 1.67449219 -0.02449219 2.53710938 -0.03710938 C3.73883789 -0.04000977 3.73883789 -0.04000977 4.96484375 -0.04296875 C5.70210693 -0.04707764 6.43937012 -0.05118652 7.19897461 -0.05541992 C9.0625 0.1875 9.0625 0.1875 11.0625 2.1875 C11.25088354 5.20080006 11.31414443 8.12155043 11.28955078 11.13525391 C11.28984283 12.06213516 11.29013489 12.98901642 11.29043579 13.94398499 C11.28903889 17.01743834 11.27346075 20.09065133 11.2578125 23.1640625 C11.25408365 25.29112618 11.25123608 27.41819156 11.24923706 29.54525757 C11.24159052 35.15129312 11.22193327 40.7572255 11.1998291 46.36322021 C11.17939264 52.08067428 11.17024006 57.79814496 11.16015625 63.515625 C11.13868834 74.73962873 11.1045401 85.9635558 11.0625 97.1875 C14.1321419 98.00437524 16.75307184 98.29355601 19.9375 98.25 C20.91017822 98.24162109 21.88285645 98.23324219 22.88500977 98.22460938 C23.93358154 98.21236328 24.98215332 98.20011719 26.0625 98.1875 C40.0808159 98.09581573 54.05833792 98.60355877 68.0625 99.1875 C68.0625 104.4675 68.0625 109.7475 68.0625 115.1875 C42.3225 115.1875 16.5825 115.1875 -9.9375 115.1875 C-9.97766367 86.73823489 -9.97766367 86.73823489 -9.98775387 72.73411083 C-9.99330558 65.14573228 -10.00036504 57.55736466 -10.01293945 49.96899414 C-10.023947 43.32303835 -10.02977622 36.67709131 -10.03237724 30.03112602 C-10.03423201 27.48927054 -10.0378536 24.94741574 -10.04323006 22.40556526 C-10.05043667 18.85898538 -10.0514911 15.3124551 -10.05102539 11.76586914 C-10.05462067 10.70348022 -10.05821594 9.64109131 -10.06192017 8.54650879 C-10.0605455 7.58592056 -10.05917084 6.62533234 -10.05775452 5.63563538 C-10.05867631 4.79588197 -10.0595981 3.95612856 -10.06054783 3.09092808 C-9.74479797 -1.79340954 -3.70997973 0.0028429 0 0 Z " fill="#252525" transform="translate(343.9375,433.8125)"/>
<path d="M0 0 C6.6 0 13.2 0 20 0 C21.28812362 11.82042856 21.12648955 23.60783509 21.09765625 35.484375 C21.0957883 37.75408904 21.09436618 40.02380348 21.09336853 42.29351807 C21.08957307 48.23145688 21.07976853 54.16937076 21.06866455 60.1072998 C21.05838617 66.18090477 21.05385721 72.25451382 21.04882812 78.328125 C21.03814327 90.21876088 21.02110303 102.10937836 21 114 C17 116 17 116 0 115 C0 77.05 0 39.1 0 0 Z " fill="#242525" transform="translate(419,434)"/>
<path d="M0 0 C0.33 0 0.66 0 1 0 C1 36.3 1 72.6 1 110 C25.09 110 49.18 110 74 110 C74 106.04 74 102.08 74 98 C55.19 98 36.38 98 17 98 C17 96.35 17 94.7 17 93 C17.76054687 93.32871094 18.52109375 93.65742187 19.3046875 93.99609375 C24.31086524 95.35612301 28.96502773 95.16564304 34.125 95.0625 C48.10479447 94.9116276 62.03416831 95.41765706 76 96 C76 101.28 76 106.56 76 112 C50.59 112 25.18 112 -1 112 C-1.04010881 85.4969901 -1.04010881 85.4969901 -1.04882812 74.20898438 C-1.05480833 66.50349235 -1.06188679 58.7980122 -1.07543945 51.0925293 C-1.08629631 44.88097186 -1.0922828 38.66942714 -1.09487724 32.45786095 C-1.09672643 30.0867766 -1.10033736 27.71569296 -1.10573006 25.34461403 C-1.11297755 22.02635817 -1.11398936 18.70815507 -1.11352539 15.38989258 C-1.11712067 14.40733994 -1.12071594 13.42478729 -1.12442017 12.41246033 C-1.1230455 11.50527252 -1.12167084 10.59808472 -1.12025452 9.66340637 C-1.12117631 8.87896054 -1.1220981 8.09451471 -1.12304783 7.2862978 C-0.98828251 4.78228241 -0.54517043 2.44480814 0 0 Z " fill="#08080A" transform="translate(336,437)"/>
<path d="M0 0 C3.33600367 2.05838525 4.8262176 3.7393264 7 7 C7.47364652 11.81540624 7.49199653 14.05114955 5.25 18.375 C2.0220747 22.14091285 0.49173061 22.86438813 -4.4375 23.3125 C-9.10652451 22.90293645 -11.4769208 21.5230792 -14.75 18.25 C-16.53294091 15.04070635 -16.93767154 12.67737932 -17 9 C-15.79484695 5.64182072 -14.2273902 2.77289634 -11.1328125 0.82421875 C-7.45018184 -0.5989224 -3.87902576 -0.57492703 0 0 Z " fill="#FE7419" transform="translate(242,476)"/>
<path d="M0 0 C20.69329199 -0.1094705 41.32866937 -0.11113943 62 1 C62 1.66 62 2.32 62 3 C42.2 3 22.4 3 2 3 C2 39.3 2 75.6 2 113 C7.28 113 12.56 113 18 113 C18 113.66 18 114.32 18 115 C12.06 115.33 6.12 115.66 0 116 C-0.7016562 90.85314311 -1.1070502 65.7197589 -1.125 40.5625 C-1.12749756 39.33870636 -1.12999512 38.11491272 -1.13256836 36.85403442 C-1.17488176 11.66719147 -1.17488176 11.66719147 0 0 Z " fill="#09090B" transform="translate(454,434)"/>
<path d="M0 0 C0.83724609 -0.01224609 1.67449219 -0.02449219 2.53710938 -0.03710938 C3.73883789 -0.04000977 3.73883789 -0.04000977 4.96484375 -0.04296875 C5.70210693 -0.04707764 6.43937012 -0.05118652 7.19897461 -0.05541992 C9.0625 0.1875 9.0625 0.1875 11.0625 2.1875 C11.25084927 5.17052129 11.31415839 8.06004254 11.28955078 11.04345703 C11.28984283 11.96058472 11.29013489 12.8777124 11.29043579 13.82263184 C11.28903893 16.86362059 11.27346101 19.90436638 11.2578125 22.9453125 C11.25408364 25.04995591 11.25123607 27.15460106 11.24923706 29.25924683 C11.24159064 34.80609914 11.2219335 40.35284717 11.1998291 45.8996582 C11.17939237 51.55678903 11.17024 57.21393667 11.16015625 62.87109375 C11.13868856 73.97660839 11.10454048 85.08204553 11.0625 96.1875 C10.4025 96.1875 9.7425 96.1875 9.0625 96.1875 C8.7325 97.1775 8.4025 98.1675 8.0625 99.1875 C8.0625 67.5075 8.0625 35.8275 8.0625 3.1875 C2.7825 3.1875 -2.4975 3.1875 -7.9375 3.1875 C-8.2675 40.1475 -8.5975 77.1075 -8.9375 115.1875 C-9.2675 115.1875 -9.5975 115.1875 -9.9375 115.1875 C-9.96082986 100.34102051 -9.9784796 85.49454343 -9.98931217 70.64804935 C-9.99447494 63.75502473 -10.00151728 56.86201147 -10.01293945 49.96899414 C-10.023947 43.32303835 -10.02977622 36.67709131 -10.03237724 30.03112602 C-10.03423201 27.48927054 -10.0378536 24.94741574 -10.04323006 22.40556526 C-10.05043667 18.85898538 -10.0514911 15.3124551 -10.05102539 11.76586914 C-10.05462067 10.70348022 -10.05821594 9.64109131 -10.06192017 8.54650879 C-10.0605455 7.58592056 -10.05917084 6.62533234 -10.05775452 5.63563538 C-10.05867631 4.79588197 -10.0595981 3.95612856 -10.06054783 3.09092808 C-9.74479797 -1.79340954 -3.70997973 0.0028429 0 0 Z " fill="#2F231C" transform="translate(343.9375,433.8125)"/>
<path d="M0 0 C6.6 0 13.2 0 20 0 C21.42857143 11.71428571 21.42857143 11.71428571 19 17 C18.67 17 18.34 17 18 17 C18 12.38 18 7.76 18 3 C12.72 3 7.44 3 2 3 C2 39.3 2 75.6 2 113 C5.63 113 9.26 113 13 113 C13 113.66 13 114.32 13 115 C8.71 115 4.42 115 0 115 C0 77.05 0 39.1 0 0 Z " fill="#181718" transform="translate(419,434)"/>
<path d="M0 0 C21.12 0 42.24 0 64 0 C63.67 0.99 63.34 1.98 63 3 C56.11727705 3.02557814 49.23456659 3.04296162 42.35180664 3.05493164 C40.01553896 3.05992745 37.67927435 3.06672637 35.34301758 3.07543945 C10.42538936 3.16597155 10.42538936 3.16597155 0 2 C0 1.34 0 0.68 0 0 Z " fill="#211915" transform="translate(472,502)"/>
<path d="M0 0 C1.14082031 0.49306641 1.14082031 0.49306641 2.3046875 0.99609375 C7.31086524 2.35612301 11.96502773 2.16564304 17.125 2.0625 C31.103878 1.91163749 45.03535171 2.41023163 59 3 C59.02703381 4.93742341 59.04641125 6.87495479 59.0625 8.8125 C59.07410156 9.89144531 59.08570313 10.97039063 59.09765625 12.08203125 C59 15 59 15 58 18 C57.34 17.67 56.68 17.34 56 17 C56.33 13.04 56.66 9.08 57 5 C38.19 5 19.38 5 0 5 C0 3.35 0 1.7 0 0 Z " fill="#161515" transform="translate(353,530)"/>
<path d="M0 0 C0.33 0 0.66 0 1 0 C1 1.65 1 3.3 1 5 C-23.09 5 -47.18 5 -72 5 C-72 4.34 -72 3.68 -72 3 C-36.855 2.505 -36.855 2.505 -1 2 C-0.67 1.34 -0.34 0.68 0 0 Z " fill="#0E0D10" transform="translate(544,445)"/>
<path d="M0 0 C5.47587508 -0.47073312 7.68232097 1.64960262 11.73828125 5.03515625 C12.48464844 5.68355469 13.23101563 6.33195312 14 7 C14.61230469 7.49371094 15.22460938 7.98742187 15.85546875 8.49609375 C20.0832499 12.22079797 22.70684649 16.60470022 25.375 21.5 C25.72119385 22.1290625 26.0673877 22.758125 26.42407227 23.40625 C28.62412418 27.63987534 29.57122907 31.24676796 30 36 C29.01 36.495 29.01 36.495 28 37 C27.78085937 36.24976563 27.56171875 35.49953125 27.3359375 34.7265625 C25.08320705 27.45555448 22.25189946 21.30776293 18 15 C17.4225 14.113125 16.845 13.22625 16.25 12.3125 C11.66155672 7.59659997 5.95144615 3.79662863 0 1 C0 0.67 0 0.34 0 0 Z " fill="#171717" transform="translate(861,439)"/>
<path d="M0 0 C1.03518197 3.1055459 0.93904933 4.03931837 0.375 7.125 C-0.42227475 13.48248955 1.44011328 18.40018879 4.6875 23.8125 C7.76502078 26.72366831 11.14043138 28.32314858 15 30 C15 30.33 15 30.66 15 31 C11.20285151 31.46306689 8.64626947 31.13048092 5.4375 29.125 C1.04585336 25.64096033 -1.36650913 21.31800168 -3 16 C-3.54723267 10.82959476 -3.65281889 5.95845668 -2 1 C-1.34 0.67 -0.68 0.34 0 0 Z " fill="#FB6C11" transform="translate(556,521)"/>
<path d="M0 0 C7.41709295 1.12868806 12.02221954 5.59580129 17 11 C18.80172975 13.55905022 19.96843381 16.05266802 21 19 C21.29519531 19.84046875 21.59039062 20.6809375 21.89453125 21.546875 C23.28841252 25.84944913 24.16167662 29.44880302 24 34 C21.6226702 31.6226702 21.04549121 29.33777558 20.04736328 26.18432617 C17.38839004 17.82843651 14.82486019 10.32849154 6.8125 5.75 C4.88448992 4.81353796 2.94317232 3.90458022 1 3 C0.67 2.01 0.34 1.02 0 0 Z " fill="#FD6B0F" transform="translate(261,445)"/>
<path d="M0 0 C0.66 0 1.32 0 2 0 C3.62109375 1.86328125 3.62109375 1.86328125 5.4375 4.3125 C7.90976977 7.63908504 7.90976977 7.63908504 10.72265625 10.66796875 C12 12 12 12 12 14 C12.70125 14.2475 13.4025 14.495 14.125 14.75 C17 16 17 16 19.6875 17.875 C23.90439109 20.58017541 28.31880752 22.26074272 33 24 C33 24.33 33 24.66 33 25 C20.9343612 24.80220264 13.24991685 17.71825965 5.09375 9.4296875 C0 3.51865672 0 3.51865672 0 0 Z " fill="#1A191A" transform="translate(782,523)"/>
<path d="M0 0 C0.33 0 0.66 0 1 0 C1.144375 1.134375 1.28875 2.26875 1.4375 3.4375 C1.61171478 6.80777201 1.61171478 6.80777201 3 8 C3.08713831 9.70772358 3.10700007 11.41898649 3.09765625 13.12890625 C3.09443359 14.16337891 3.09121094 15.19785156 3.08789062 16.26367188 C3.07951172 17.35228516 3.07113281 18.44089844 3.0625 19.5625 C3.05798828 20.65498047 3.05347656 21.74746094 3.04882812 22.87304688 C3.03699826 25.58208495 3.02051543 28.29101599 3 31 C2.34 31 1.68 31 1 31 C0.67 31.66 0.34 32.32 0 33 C0 22.11 0 11.22 0 0 Z " fill="#1C1B1B" transform="translate(437,472)"/>
<path d="M0 0 C1.24013669 3.49923919 0.75543451 5.01595925 -0.8125 8.3125 C-4.50170507 17.63125329 -4.38587768 28.09790164 -5 38 C-8.87474253 32.18788621 -7.53603743 23.38055723 -6.46484375 16.625 C-5.05979563 10.60555888 -3.00712899 5.39209337 0 0 Z " fill="#12100F" transform="translate(680,464)"/>
<path d="M0 0 C7.94748224 0.43349903 13.72434677 3.17102676 19.75 8.375 C21.88581148 10.28447846 21.88581148 10.28447846 24.5625 9.8125 C25.366875 9.544375 26.17125 9.27625 27 9 C27.763125 8.814375 28.52625 8.62875 29.3125 8.4375 C29.869375 8.293125 30.42625 8.14875 31 8 C31 8.66 31 9.32 31 10 C29.02 10.99 27.04 11.98 25 13 C25 13.66 25 14.32 25 15 C20.71591822 14.52399091 18.91085934 11.98016551 16 9 C11.06627612 5.098916 5.99048139 3.56273428 0 2 C0 1.34 0 0.68 0 0 Z " fill="#191717" transform="translate(726,448)"/>
<path d="M0 0 C0.33 0 0.66 0 1 0 C1.34175435 6.13670288 1.62894693 12.27269334 1.86669922 18.41430664 C1.95506457 20.50125014 2.05809139 22.58762801 2.17626953 24.6730957 C2.34401513 27.67889607 2.45819408 30.68281671 2.5625 33.69140625 C2.62566406 34.61772354 2.68882812 35.54404083 2.75390625 36.49842834 C2.84613207 40.43511553 2.79015328 42.9621909 0.35498047 46.16061401 C-3.28653986 49.52789706 -6.0334987 51.29348193 -11 52 C-8.72438315 49.63685942 -6.66584343 47.78146845 -3.90185547 45.97387695 C-1.92672941 44.32647848 -1.10663979 43.39709549 -0.43414307 40.89291382 C-0.20954902 38.28161918 -0.16925791 35.72632121 -0.1953125 33.10546875 C-0.17475296 31.68443596 -0.17475296 31.68443596 -0.15377808 30.23469543 C-0.11648383 27.2184803 -0.12019258 24.20391295 -0.125 21.1875 C-0.10687285 19.13864614 -0.0860701 17.08981409 -0.0625 15.04101562 C-0.01065417 10.02706769 0.0044309 5.01420129 0 0 Z " fill="#131414" transform="translate(764,491)"/>
<path d="M0 0 C1.91015625 0.7734375 1.91015625 0.7734375 4.59765625 2.7734375 C8.73046767 5.26871987 12.16677026 5.56262034 16.91015625 5.7734375 C16.91015625 6.1034375 16.91015625 6.4334375 16.91015625 6.7734375 C14.99419657 6.85477541 13.07723693 6.91278117 11.16015625 6.9609375 C9.55914062 7.01314453 9.55914062 7.01314453 7.92578125 7.06640625 C4.54563442 6.73802411 3.464222 5.88714709 0.91015625 3.7734375 C-2.25716796 3.52257026 -2.25716796 3.52257026 -5.08984375 3.7734375 C-5.08984375 4.4334375 -5.08984375 5.0934375 -5.08984375 5.7734375 C-8.51217347 6.91421407 -11.17657592 6.87158867 -14.77734375 6.8359375 C-16.54658203 6.82240234 -16.54658203 6.82240234 -18.3515625 6.80859375 C-19.25519531 6.79699219 -20.15882813 6.78539062 -21.08984375 6.7734375 C-21.08984375 6.4434375 -21.08984375 6.1134375 -21.08984375 5.7734375 C-20.47238281 5.75925781 -19.85492188 5.74507813 -19.21875 5.73046875 C-13.14282612 5.38829343 -9.16466745 4.11861495 -4.09765625 0.734375 C-2.08984375 -0.2265625 -2.08984375 -0.2265625 0 0 Z " fill="#FD6A0D" transform="translate(253.08984375,501.2265625)"/>
<path d="M0 0 C-0.13277344 0.63421875 -0.26554688 1.2684375 -0.40234375 1.921875 C-2.28931943 11.89392168 -2.61989623 21.87723636 -3 32 C-3.66 32 -4.32 32 -5 32 C-5.02952761 28.70835283 -5.04697292 25.41674062 -5.0625 22.125 C-5.07087891 21.2071875 -5.07925781 20.289375 -5.08789062 19.34375 C-5.134117 6.21545921 -5.134117 6.21545921 -4 1 C-2 0 -2 0 0 0 Z " fill="#34241B" transform="translate(660,471)"/>
<path d="M0 0 C3.23256243 1.61628121 3.67336704 4.76993715 5 8 C6.65766798 9.65766798 8.60346405 9.21049503 10.875 9.25 C11.75929687 9.27578125 12.64359375 9.3015625 13.5546875 9.328125 C16.45018498 8.93959179 17.12193574 8.13671982 19 6 C19.66 6 20.32 6 21 6 C20.69611836 8.93752254 20.19330344 9.84080893 17.875 11.75 C14.2901772 13.30861861 11.87882048 13.41558791 8 13 C4.37239927 11.35109058 1.91347015 9.52481343 0 6 C-0.1875 2.75 -0.1875 2.75 0 0 Z " fill="#FD6B10" transform="translate(226,486)"/>
<path d="M0 0 C0.33 0.66 0.66 1.32 1 2 C-0.00390625 4.03125 -0.00390625 4.03125 -1.5625 6.5 C-2.11808594 7.38945312 -2.67367187 8.27890625 -3.24609375 9.1953125 C-3.82488281 10.12085938 -4.40367187 11.04640625 -5 12 C-6.50790325 14.58813711 -8.0116922 17.17847179 -9.5078125 19.7734375 C-11.10925392 22.16302287 -12.90821546 24.03390208 -15 26 C-14.42044334 22.18821899 -13.33151678 19.46764862 -11.34765625 16.171875 C-10.55391602 14.84929687 -10.55391602 14.84929687 -9.74414062 13.5 C-9.18919922 12.5925 -8.63425781 11.685 -8.0625 10.75 C-7.51142578 9.82703125 -6.96035156 8.9040625 -6.39257812 7.953125 C-2.26513904 1.13256952 -2.26513904 1.13256952 0 0 Z " fill="#FB6D11" transform="translate(582,478)"/>
<path d="M0 0 C1.6396875 0.23009766 1.6396875 0.23009766 3.3125 0.46484375 C8.52933947 1.11694868 13.75005734 1.34164034 19 1.5625 C19.96550781 1.60568359 20.93101562 1.64886719 21.92578125 1.69335938 C24.28374425 1.79841713 26.64179416 1.90056914 29 2 C20.87511854 6.19899336 12.83430264 5.31209506 4.1015625 3.73046875 C2 3 2 3 0 0 Z " fill="#FD6B0F" transform="translate(225,516)"/>
<path d="M0 0 C0.66 0.33 1.32 0.66 2 1 C2.4292069 3.7242716 2.75241705 6.3832481 3 9.125 C3.40689896 13.49539621 3.81383451 17.68747183 5.0859375 21.90234375 C5.97281016 24.90785665 6.1406231 26.14844224 5 29 C0.4880285 20.79641546 -0.82122817 12.28238329 -1 3 C-0.67 2.01 -0.34 1.02 0 0 Z " fill="#141414" transform="translate(774,489)"/>
<path d="M0 0 C0 0.33 0 0.66 0 1 C-9.57 1.33 -19.14 1.66 -29 2 C-29 1.34 -29 0.68 -29 0 C-18.65066573 -1.93187573 -10.26703956 -2.66182507 0 0 Z " fill="#181717" transform="translate(845,433)"/>
<path d="M0 0 C1.51708428 11.52164009 1.51708428 11.52164009 -1 17 C-1.33 17 -1.66 17 -2 17 C-2 12.38 -2 7.76 -2 3 C-7.28 3 -12.56 3 -18 3 C-18 2.67 -18 2.34 -18 2 C-16.41058594 1.90912109 -16.41058594 1.90912109 -14.7890625 1.81640625 C-13.40102779 1.73199873 -12.01300768 1.64735083 -10.625 1.5625 C-9.92632812 1.52318359 -9.22765625 1.48386719 -8.5078125 1.44335938 C-5.61833482 1.26276702 -2.65017083 0 0 0 Z " fill="#121213" transform="translate(439,434)"/>
<path d="M0 0 C-1 2 -1 2 -3.2578125 2.89453125 C-4.20398438 3.19746094 -5.15015625 3.50039063 -6.125 3.8125 C-11.19440934 5.5594356 -14.76858505 7.75891621 -19 11 C-19.66 11 -20.32 11 -21 11 C-21 11.66 -21 12.32 -21 13 C-21.66 12.67 -22.32 12.34 -23 12 C-19.99763047 7.66490783 -16.74023013 5.42038909 -12.0625 3.1875 C-11.45470703 2.87619141 -10.84691406 2.56488281 -10.22070312 2.24414062 C-6.67867523 0.50560482 -3.94880955 -0.38214286 0 0 Z " fill="#171514" transform="translate(697,435)"/>
<path d="M0 0 C0.33 0.66 0.66 1.32 1 2 C-1.66673742 2.02727345 -4.33318869 2.04696948 -7 2.0625 C-8.11568359 2.07506836 -8.11568359 2.07506836 -9.25390625 2.08789062 C-14.26148844 2.10966272 -19.04279032 1.71541549 -24 1 C-24 0.67 -24 0.34 -24 0 C-16.25149125 -1.67535324 -7.75627471 -1.68614668 0 0 Z " fill="#FE680E" transform="translate(256,442)"/>
<path d="M0 0 C2.8125 1.5625 2.8125 1.5625 5 3 C2.37617433 3.90824735 0.95675669 3.99135134 -1.8125 3.4375 C-5.68507755 2.90596975 -8.28597181 3.8995472 -12 5 C-14.2109375 4.5625 -14.2109375 4.5625 -16 4 C-15.37351563 3.72285156 -14.74703125 3.44570313 -14.1015625 3.16015625 C-13.28429687 2.79792969 -12.46703125 2.43570313 -11.625 2.0625 C-10.81289062 1.70285156 -10.00078125 1.34320312 -9.1640625 0.97265625 C-5.37914709 -0.72850609 -4.12174252 -1.15025373 0 0 Z " fill="#FD6B0E" transform="translate(203,548)"/>
<path d="M0 0 C0.33 0.99 0.66 1.98 1 3 C-1.1032567 3.98111975 -3.20763689 4.95983134 -5.3125 5.9375 C-6.48425781 6.48277344 -7.65601563 7.02804687 -8.86328125 7.58984375 C-12.51870774 9.2331924 -15.21527199 10.12761849 -19.1875 10.0625 C-21.0746875 10.0315625 -21.0746875 10.0315625 -23 10 C-20.61810269 7.61810269 -18.70643075 7.43445656 -15.50390625 6.703125 C-7.14699083 4.45931997 -7.14699083 4.45931997 0 0 Z " fill="#161616" transform="translate(868,540)"/>
<path d="M0 0 C0.66 0 1.32 0 2 0 C1.31444082 7.31263125 -4.08524276 13.8395049 -9 19 C-11.8125 20.375 -11.8125 20.375 -14 21 C-13 18 -13 18 -10.3125 15.9375 C-5.31578801 11.99082169 -1.99332901 5.97998702 0 0 Z " fill="#131414" transform="translate(870,510)"/>
<path d="M0 0 C-1.37416714 2.74833429 -2.76471731 2.79714285 -5.625 3.8125 C-10.56513235 5.70491799 -16.51192634 8.02385267 -19 13 C-19.99 12.67 -20.98 12.34 -22 12 C-16.20749401 5.53697885 -9.31466803 -1.19418821 0 0 Z " fill="#151515" transform="translate(823,448)"/>
<path d="M0 0 C4.71183028 1.28629527 7.60637383 3.00898051 11.1875 6.3125 C12.02667969 7.07175781 12.86585938 7.83101563 13.73046875 8.61328125 C15.94314323 10.94020743 17.47189476 13.18768905 19 16 C17.35 16.33 15.7 16.66 14 17 C14 15.68 14 14.36 14 13 C11.17138049 8.11420266 6.85417768 5.96493257 2.046875 3.33203125 C1.37140625 2.89246094 0.6959375 2.45289063 0 2 C0 1.34 0 0.68 0 0 Z " fill="#131313" transform="translate(745,438)"/>
<path d="M0 0 C3.43734063 -0.08703823 6.87439837 -0.14040272 10.3125 -0.1875 C11.28896484 -0.21263672 12.26542969 -0.23777344 13.27148438 -0.26367188 C14.20927734 -0.27333984 15.14707031 -0.28300781 16.11328125 -0.29296875 C16.97735596 -0.3086792 17.84143066 -0.32438965 18.73168945 -0.34057617 C21 0 21 0 24 3 C15.75 2.67 7.5 2.34 -1 2 C-0.67 1.34 -0.34 0.68 0 0 Z " fill="#FE6909" transform="translate(229,415)"/>
<path d="M0 0 C2.58161566 2.58161566 2.98618427 4.81562779 4 8.3125 C5.16461438 12.30221412 6.38909546 16.16691017 8 20 C7.01 20 6.02 20 5 20 C-0.74031891 6.3667426 -0.74031891 6.3667426 0 0 Z " fill="#1D1715" transform="translate(657,504)"/>
<path d="M0 0 C0.71484375 1.609375 0.71484375 1.609375 1 4 C-0.43359375 7.015625 -0.43359375 7.015625 -2.4375 10.25 C-3.09621094 11.32765625 -3.75492188 12.4053125 -4.43359375 13.515625 C-4.95050781 14.33546875 -5.46742188 15.1553125 -6 16 C-7.32 15.67 -8.64 15.34 -10 15 C-9.34 15 -8.68 15 -8 15 C-7.34 12.69 -6.68 10.38 -6 8 C-5.34 8 -4.68 8 -4 8 C-3.71125 7.05125 -3.4225 6.1025 -3.125 5.125 C-2 2 -2 2 0 0 Z " fill="#FB6A10" transform="translate(633,483)"/>
<path d="M0 0 C0.66 0 1.32 0 2 0 C3.62109375 1.86328125 3.62109375 1.86328125 5.4375 4.3125 C7.90976977 7.63908504 7.90976977 7.63908504 10.72265625 10.66796875 C12 12 12 12 12 14 C12.99 14.33 13.98 14.66 15 15 C14.01 15.33 13.02 15.66 12 16 C10.55620057 14.61068357 9.12022488 13.21323422 7.6875 11.8125 C6.88699219 11.03519531 6.08648438 10.25789062 5.26171875 9.45703125 C0 3.74093264 0 3.74093264 0 0 Z " fill="#131213" transform="translate(782,523)"/>
<path d="M0 0 C0.33 0 0.66 0 1 0 C0.65697965 5.98511371 0.17692157 10.75117306 -3 16 C-3.99 16 -4.98 16 -6 16 C-5.566875 15.0409375 -5.566875 15.0409375 -5.125 14.0625 C-3.90139534 10.73157621 -3.21758957 7.46844459 -2.5625 3.98828125 C-2 2 -2 2 0 0 Z " fill="#F66C16" transform="translate(651,447)"/>
<path d="M0 0 C0.66 0 1.32 0 2 0 C0.44896235 6.96415903 -2.69252087 12.28224077 -8 17 C-6.62259636 10.66394325 -3.86565393 5.2207337 0 0 Z " fill="#FD6C0E" transform="translate(599,448)"/>
<path d="M0 0 C3.24992446 -0.05819424 6.49971435 -0.09366116 9.75 -0.125 C10.67039063 -0.14175781 11.59078125 -0.15851563 12.5390625 -0.17578125 C13.42851562 -0.18222656 14.31796875 -0.18867188 15.234375 -0.1953125 C16.05131836 -0.20578613 16.86826172 -0.21625977 17.70996094 -0.22705078 C20.21887518 0.02170084 21.83395625 0.74299871 24 2 C24 2.66 24 3.32 24 4 C22.54119891 3.85892253 21.08296449 3.71197585 19.625 3.5625 C18.81289062 3.48128906 18.00078125 3.40007812 17.1640625 3.31640625 C15 3 15 3 13 2 C10.795636 1.77049681 8.58607827 1.58924067 6.375 1.4375 C5.18648437 1.35371094 3.99796875 1.26992188 2.7734375 1.18359375 C1.40058594 1.09271484 1.40058594 1.09271484 0 1 C0 0.67 0 0.34 0 0 Z " fill="#FE6708" transform="translate(230,454)"/>
<path d="M0 0 C1 1 1 1 1.0625 4.0625 C1.041875 5.031875 1.02125 6.00125 1 7 C0.34 5.68 -0.32 4.36 -1 3 C-6.94 3.495 -6.94 3.495 -13 4 C-7.8072831 -1.1927169 -6.99044184 -1.27098942 0 0 Z " fill="#FD6E16" transform="translate(280,511)"/>
<path d="M0 0 C2 0 2 0 3.5625 1.1875 C5 3 5 3 5.4375 5.375 C5.83641756 8.20262681 5.83641756 8.20262681 8.125 10.625 C8.74375 11.40875 9.3625 12.1925 10 13 C9.67 13.99 9.34 14.98 9 16 C0 6.15533981 0 6.15533981 0 0 Z " fill="#191919" transform="translate(795,510)"/>
<path d="M0 0 C4.71428454 2.74086311 8.74213525 5.87767997 11 11 C10.62890625 13.21875 10.62890625 13.21875 10 15 C9.61328125 14.48050781 9.2265625 13.96101563 8.828125 13.42578125 C6.47649657 10.27669466 4.12880709 7.15592437 1.625 4.125 C0 2 0 2 0 0 Z " fill="#FB6C10" transform="translate(289,439)"/>
<path d="M0 0 C0 0.66 0 1.32 0 2 C-5.61 2 -11.22 2 -17 2 C-17.33 1.34 -17.66 0.68 -18 0 C-15.56288386 -0.19484938 -13.12562602 -0.38115178 -10.6875 -0.5625 C-9.99720703 -0.61857422 -9.30691406 -0.67464844 -8.59570312 -0.73242188 C-5.37487726 -0.96581505 -3.09672655 -1.03224218 0 0 Z " fill="#0C0C0C" transform="translate(747,489)"/>
<path d="M0 0 C0.33 0 0.66 0 1 0 C1.05421223 3.04190863 1.09377548 6.08283999 1.125 9.125 C1.15013672 10.40890625 1.15013672 10.40890625 1.17578125 11.71875 C1.21306681 16.56587293 0.89580643 20.44707905 -1 25 C-1.33 25 -1.66 25 -2 25 C-2.125 18.375 -2.125 18.375 -1 15 C-0.77281504 12.43365139 -0.58391816 9.88321893 -0.4375 7.3125 C-0.39431641 6.61060547 -0.35113281 5.90871094 -0.30664062 5.18554688 C-0.2008264 3.45724794 -0.09993419 1.7286489 0 0 Z " fill="#0A0A0B" transform="translate(874,484)"/>
<path d="M0 0 C0.99 0.33 1.98 0.66 3 1 C3.33 5.95 3.66 10.9 4 16 C3.34 16 2.68 16 2 16 C-0.42130331 12.36804504 -0.21022785 10.61650652 -0.125 6.3125 C-0.09792969 4.54326172 -0.09792969 4.54326172 -0.0703125 2.73828125 C-0.04710937 1.83464844 -0.02390625 0.93101562 0 0 Z " fill="#40322D" transform="translate(543,434)"/>
<path d="M0 0 C0.66 0.33 1.32 0.66 2 1 C-1.75 4 -1.75 4 -4 4 C-4 4.66 -4 5.32 -4 6 C-5.53125 7.2890625 -5.53125 7.2890625 -7.5 8.625 C-8.1496875 9.07101562 -8.799375 9.51703125 -9.46875 9.9765625 C-9.9740625 10.31429688 -10.479375 10.65203125 -11 11 C-10.43736042 7.49490749 -9.34814818 6.04731992 -6.625 3.8125 C-6.01914062 3.30332031 -5.41328125 2.79414063 -4.7890625 2.26953125 C-3 1 -3 1 0 0 Z " fill="#181718" transform="translate(798,442)"/>
<path d="M0 0 C7.26 0.33 14.52 0.66 22 1 C22 1.33 22 1.66 22 2 C19.08379545 2.24901747 16.16888923 2.47485086 13.25 2.6875 C12.425 2.76033203 11.6 2.83316406 10.75 2.90820312 C9.95078125 2.96298828 9.1515625 3.01777344 8.328125 3.07421875 C7.22839355 3.16062622 7.22839355 3.16062622 6.10644531 3.2487793 C4 3 4 3 0 0 Z " fill="#2C2C2C" transform="translate(818,534)"/>
<path d="M0 0 C-1.33333333 1.33333333 -2.66666667 2.66666667 -4 4 C-4.86625 4.886875 -5.7325 5.77375 -6.625 6.6875 C-9 9 -9 9 -11 10 C-9.26873217 3.65201794 -7.20700882 -0.80077876 0 0 Z " fill="#FD6B0C" transform="translate(617,431)"/>
<path d="M0 0 C3.23828114 0.65951263 5.80549593 1.83215228 8.6875 3.4375 C9.47511719 3.86933594 10.26273438 4.30117188 11.07421875 4.74609375 C13 6 13 6 14 8 C10.0397381 7.43726296 7.47032673 6.26476935 4.1875 4 C3.39730469 3.46375 2.60710938 2.9275 1.79296875 2.375 C1.20128906 1.92125 0.60960937 1.4675 0 1 C0 0.67 0 0.34 0 0 Z " fill="#161514" transform="translate(686,526)"/>
<path d="M0 0 C3.43950364 0.61198376 5.51564485 1.92058847 8.25 4.0625 C8.95640625 4.61035156 9.6628125 5.15820312 10.390625 5.72265625 C11.18726563 6.35494141 11.18726563 6.35494141 12 7 C11.01 7.33 10.02 7.66 9 8 C6.9921875 6.85546875 6.9921875 6.85546875 4.875 5.1875 C4.17117187 4.64480469 3.46734375 4.10210938 2.7421875 3.54296875 C1 2 1 2 0 0 Z " fill="#FD6A0E" transform="translate(203,516)"/>
<path d="M0 0 C0.66 0 1.32 0 2 0 C1.01 5.28 0.02 10.56 -1 16 C-1.33 16 -1.66 16 -2 16 C-2.05449838 14.27119018 -2.09301688 12.54187288 -2.125 10.8125 C-2.14820313 9.84957031 -2.17140625 8.88664062 -2.1953125 7.89453125 C-1.9913544 4.87187222 -1.26874632 2.73230015 0 0 Z " fill="#111111" transform="translate(777,469)"/>
<path d="M0 0 C3.35498935 1.38827146 5.15050455 2.85585774 7 6 C7 7.32 7 8.64 7 10 C6.34 10 5.68 10 5 10 C2.60268669 6.80358226 0.61520275 3.99881788 0 0 Z " fill="#F96A11" transform="translate(642,433)"/>
<path d="M0 0 C1 3 1 3 0.07421875 5.04296875 C-0.61220703 6.10451172 -0.61220703 6.10451172 -1.3125 7.1875 C-1.76238281 7.90292969 -2.21226562 8.61835937 -2.67578125 9.35546875 C-3.11277344 9.89816406 -3.54976562 10.44085937 -4 11 C-4.66 11 -5.32 11 -6 11 C-5.34727108 6.75726205 -3.0234967 3.0234967 0 0 Z " fill="#FD6B0F" transform="translate(618,509)"/>
<path d="M0 0 C0.66 0 1.32 0 2 0 C2 4.29 2 8.58 2 13 C1.34 13 0.68 13 0 13 C-0.19551338 11.39679026 -0.38111983 9.79237014 -0.5625 8.1875 C-0.71912109 6.84751953 -0.71912109 6.84751953 -0.87890625 5.48046875 C-1 3 -1 3 0 0 Z " fill="#0B0B0C" transform="translate(718,491)"/>
<path d="M0 0 C0.66 0 1.32 0 2 0 C2 0.66 2 1.32 2 2 C2.5775 2.20625 3.155 2.4125 3.75 2.625 C6.84477636 4.51625222 8.1918763 6.90035937 10 10 C10 10.66 10 11.32 10 12 C5.02541998 10.22336428 3.10404885 6.09769281 0.75 1.625 C0.5025 1.08875 0.255 0.5525 0 0 Z " fill="#161717" transform="translate(859,455)"/>
<path d="M0 0 C4.00972202 3.67557852 6.45335415 7.18966896 9 12 C8.01 12 7.02 12 6 12 C4.39453125 9.8828125 4.39453125 9.8828125 2.8125 7.125 C2.01779297 5.76761719 2.01779297 5.76761719 1.20703125 4.3828125 C0 2 0 2 0 0 Z " fill="#121111" transform="translate(677,512)"/>
<path d="M0 0 C0.89203125 0.10183594 1.7840625 0.20367187 2.703125 0.30859375 C3.37859375 0.39238281 4.0540625 0.47617187 4.75 0.5625 C1.2733662 2.70586161 -1.46229195 2.77527626 -5.5 2.6875 C-6.57765625 2.66945313 -7.6553125 2.65140625 -8.765625 2.6328125 C-9.58546875 2.60960937 -10.4053125 2.58640625 -11.25 2.5625 C-7.81091032 -0.87658968 -4.6489604 -0.55053478 0 0 Z " fill="#151515" transform="translate(763.25,488.4375)"/>
<path d="M0 0 C-0.556875 0.391875 -1.11375 0.78375 -1.6875 1.1875 C-4.14069996 3.03541001 -4.14069996 3.03541001 -6.625 5.625 C-9 8 -9 8 -11 9 C-10.67 7.35 -10.34 5.7 -10 4 C-9.34 4 -8.68 4 -8 4 C-8 3.34 -8 2.68 -8 2 C-3.61016949 -1.20338983 -3.61016949 -1.20338983 0 0 Z " fill="#FD6D0F" transform="translate(220,459)"/>
<path d="M0 0 C0.66 0.33 1.32 0.66 2 1 C3.08507364 4.67255694 3.29812714 6.37664325 1.625 9.875 C1.08875 10.57625 0.5525 11.2775 0 12 C-0.33 12 -0.66 12 -1 12 C-0.67 8.04 -0.34 4.08 0 0 Z " fill="#FD6B0D" transform="translate(174,521)"/>
<path d="M0 0 C0 0.66 0 1.32 0 2 C-3.82989106 3.80230168 -6.78121808 4.19622241 -11 4 C-11 3.34 -11 2.68 -11 2 C-7.12315913 0.80712589 -4.08378077 0 0 0 Z " fill="#FD6A0E" transform="translate(264,553)"/>
<path d="M0 0 C0.33 0.99 0.66 1.98 1 3 C-0.09445838 3.86657116 -1.20097781 4.71792724 -2.3125 5.5625 C-2.92738281 6.03816406 -3.54226563 6.51382813 -4.17578125 7.00390625 C-4.77777344 7.33261719 -5.37976563 7.66132812 -6 8 C-6.99 7.67 -7.98 7.34 -9 7 C-6.03 4.69 -3.06 2.38 0 0 Z " fill="#FC6A0F" transform="translate(287,538)"/>
<path d="M0 0 C0 0.66 0 1.32 0 2 C-0.93972656 2.19916016 -0.93972656 2.19916016 -1.8984375 2.40234375 C-3.12433594 2.66724609 -3.12433594 2.66724609 -4.375 2.9375 C-5.18710938 3.11152344 -5.99921875 3.28554688 -6.8359375 3.46484375 C-9.029463 3.92330693 -9.029463 3.92330693 -11 5 C-11 4.01 -11 3.02 -11 2 C-7.36576791 -0.32590854 -4.22911669 -0.16265833 0 0 Z " fill="#FE6C0E" transform="translate(240,476)"/>
<path d="M0 0 C0.66 0 1.32 0 2 0 C1.38545304 3.99455527 -0.70646737 6.74466336 -3 10 C-3.75 8.375 -3.75 8.375 -4 6 C-2.1875 2.75 -2.1875 2.75 0 0 Z " fill="#FC6D11" transform="translate(588,466)"/>
<path d="M0 0 C-0.33 0.99 -0.66 1.98 -1 3 C-1.66 3 -2.32 3 -3 3 C-3 3.66 -3 4.32 -3 5 C-3.66 5 -4.32 5 -5 5 C-5.28875 5.639375 -5.5775 6.27875 -5.875 6.9375 C-7 9 -7 9 -9 10 C-8.42110619 6.71245489 -7.45171589 5.06327505 -5.0625 2.75 C-4.53785156 2.22921875 -4.01320313 1.7084375 -3.47265625 1.171875 C-2 0 -2 0 0 0 Z " fill="#181716" transform="translate(691,454)"/>
<path d="M0 0 C0.66 0.33 1.32 0.66 2 1 C0.02 4.63 -1.96 8.26 -4 12 C-5 8 -5 8 -4.00390625 5.859375 C-3.52824219 5.16328125 -3.05257812 4.4671875 -2.5625 3.75 C-2.08941406 3.04359375 -1.61632812 2.3371875 -1.12890625 1.609375 C-0.75636719 1.07828125 -0.38382813 0.5471875 0 0 Z " fill="#101111" transform="translate(784,455)"/>
<path d="M0 0 C0 0.66 0 1.32 0 2 C-3.41831915 4.5393228 -5.75776898 5.3636198 -10 5 C-7.31217681 1.88778367 -4.19734673 0 0 0 Z " fill="#FC6A0D" transform="translate(275,548)"/>
<path d="M0 0 C0.66 0 1.32 0 2 0 C1.56802365 4.7517398 0.67230705 6.92000054 -3 10 C-3.33 9.34 -3.66 8.68 -4 8 C-3.22265625 6.0546875 -3.22265625 6.0546875 -2.0625 3.875 C-1.49208984 2.78832031 -1.49208984 2.78832031 -0.91015625 1.6796875 C-0.60980469 1.12539063 -0.30945313 0.57109375 0 0 Z " fill="#FD6A0E" transform="translate(606,527)"/>
<path d="M0 0 C0 2 0 2 -2.25 4.5 C-4.5264965 6.56954228 -6.19566446 7.85749293 -9 9 C-7.45665977 5.21180126 -4.44676575 0 0 0 Z " fill="#FE690C" transform="translate(225,469)"/>
<path d="M0 0 C0.33 0 0.66 0 1 0 C1.36220266 1.79005941 1.71452469 3.58212057 2.0625 5.375 C2.25972656 6.37273438 2.45695312 7.37046875 2.66015625 8.3984375 C3 11 3 11 2 13 C1.34 13 0.68 13 0 13 C0 8.71 0 4.42 0 0 Z " fill="#0E0E0E" transform="translate(437,536)"/>
<path d="M0 0 C4.455 0.99 4.455 0.99 9 2 C9 2.66 9 3.32 9 4 C6.03 4 3.06 4 0 4 C0 2.68 0 1.36 0 0 Z " fill="#FD690E" transform="translate(259,493)"/>
<path d="M0 0 C0.6875 1.6875 0.6875 1.6875 1 4 C-0.25 6.75 -0.25 6.75 -2 9 C-2.99 9 -3.98 9 -5 9 C-3.50163895 5.88801935 -1.80066242 2.9465385 0 0 Z " fill="#FB680E" transform="translate(644,464)"/>
<path d="M0 0 C3.96 0 7.92 0 12 0 C12.33 0.99 12.66 1.98 13 3 C8.71 2.34 4.42 1.68 0 1 C0 0.67 0 0.34 0 0 Z " fill="#100F0E" transform="translate(722,433)"/>
<path d="M0 0 C1.32 0.33 2.64 0.66 4 1 C0.535 3.97 0.535 3.97 -3 7 C-3.33 6.34 -3.66 5.68 -4 5 C-2.68 3.35 -1.36 1.7 0 0 Z " fill="#FD6C0D" transform="translate(192,428)"/>
<path d="M0 0 C0.556875 0.226875 1.11375 0.45375 1.6875 0.6875 C-3.9375 4.6875 -3.9375 4.6875 -7.3125 4.6875 C-7.3125 4.0275 -7.3125 3.3675 -7.3125 2.6875 C-3.15982824 -0.42700382 -3.15982824 -0.42700382 0 0 Z " fill="#FD6A0D" transform="translate(277.3125,520.3125)"/>
<path d="M0 0 C0.33 0.66 0.66 1.32 1 2 C0.22265625 3.9453125 0.22265625 3.9453125 -0.9375 6.125 C-1.31777344 6.84945313 -1.69804687 7.57390625 -2.08984375 8.3203125 C-2.39019531 8.87460937 -2.69054687 9.42890625 -3 10 C-3.33 10 -3.66 10 -4 10 C-3.38461538 3.47692308 -3.38461538 3.47692308 -1.4375 1.0625 C-0.7259375 0.5365625 -0.7259375 0.5365625 0 0 Z " fill="#FD6B0E" transform="translate(173,452)"/>
<path d="M0 0 C4.24822374 0.47202486 6.19989709 2.96655518 9 6 C8.67 6.99 8.34 7.98 8 9 C7.236875 8.071875 6.47375 7.14375 5.6875 6.1875 C3.88151448 4.01723899 2.0523371 1.94431935 0 0 Z " fill="#101010" transform="translate(872,446)"/>
<path d="M0 0 C4.95 0.33 9.9 0.66 15 1 C15 1.33 15 1.66 15 2 C9.06 2.495 9.06 2.495 3 3 C3 2.34 3 1.68 3 1 C2.01 0.67 1.02 0.34 0 0 Z " fill="#302C2A" transform="translate(715,431)"/>
<path d="M0 0 C3.48330216 0.64505596 6.09432866 1.98217268 9 4 C9 4.66 9 5.32 9 6 C5.06326356 4.68775452 2.77280706 3.08089673 0 0 Z " fill="#191513" transform="translate(677,539)"/>
<path d="M0 0 C2.97 0.33 5.94 0.66 9 1 C8.67 1.99 8.34 2.98 8 4 C5.36 3.01 2.72 2.02 0 1 C0 0.67 0 0.34 0 0 Z " fill="#FD6C0D" transform="translate(215,524)"/>
<path d="M0 0 C6.875 0.875 6.875 0.875 8 2 C8.04080783 3.99958364 8.04254356 6.00045254 8 8 C7.79375 7.38125 7.5875 6.7625 7.375 6.125 C5.45224112 3.15346355 3.33405473 2.86975341 0 2 C0 1.34 0 0.68 0 0 Z " fill="#FD5F04" transform="translate(273,510)"/>
<path d="M0 0 C0.66 0 1.32 0 2 0 C1.125 4.75 1.125 4.75 0 7 C-0.99 7 -1.98 7 -3 7 C-3 6.01 -3 5.02 -3 4 C-2.34 4 -1.68 4 -1 4 C-0.67 2.68 -0.34 1.36 0 0 Z " fill="#FD680C" transform="translate(622,500)"/>
<path d="M0 0 C0.33 1.32 0.66 2.64 1 4 C-0.65 5.32 -2.3 6.64 -4 8 C-3.40072174 4.64404172 -2.15377564 2.62198774 0 0 Z " fill="#FC6B0F" transform="translate(599,540)"/>
<path d="M0 0 C2 2 2 2 2.125 5.625 C2.08375 6.73875 2.0425 7.8525 2 9 C1.01 9.495 1.01 9.495 0 10 C-1.231394 6.30581799 -0.64432764 3.7943739 0 0 Z " fill="#FE680B" transform="translate(258,481)"/>
<path d="M0 0 C0.66 0.33 1.32 0.66 2 1 C-0.75 6.875 -0.75 6.875 -3 8 C-2.25 2.25 -2.25 2.25 0 0 Z " fill="#1D1814" transform="translate(664,458)"/>
<path d="M0 0 C3.37462715 0.54723683 5.08235 1.0549 8 3 C8 3.66 8 4.32 8 5 C2.25 3.375 2.25 3.375 0 0 Z " fill="#161415" transform="translate(848,449)"/>
<path d="M0 0 C-1.15173355 2.46800047 -2.04783565 4.04783565 -4 6 C-4.99 5.67 -5.98 5.34 -7 5 C-2.25 0 -2.25 0 0 0 Z " fill="#171717" transform="translate(878,533)"/>
<path d="M0 0 C3.37503669 1.1858237 5.64722731 2.27573689 8 5 C7.01 5.495 7.01 5.495 6 6 C3.96166576 4.7260411 1.96147874 3.38938077 0 2 C0 1.34 0 0.68 0 0 Z " fill="#141414" transform="translate(807,527)"/>
<path d="M0 0 C0.33 0 0.66 0 1 0 C1 2.31 1 4.62 1 7 C0.67 7 0.34 7 0 7 C0 4.69 0 2.38 0 0 Z " fill="#3C3A38" transform="translate(417,520)"/>
<path d="M0 0 C0.33 0 0.66 0 1 0 C1 1.98 1 3.96 1 6 C0.67 6 0.34 6 0 6 C0 4.02 0 2.04 0 0 Z " fill="#3D3B3A" transform="translate(417,539)"/>
<path d="M0 0 C0.33 0 0.66 0 1 0 C1 1.98 1 3.96 1 6 C0.67 6 0.34 6 0 6 C0 4.02 0 2.04 0 0 Z " fill="#3C3939" transform="translate(417,498)"/>
<path d="M0 0 C0.33 0 0.66 0 1 0 C1 1.65 1 3.3 1 5 C0.67 5 0.34 5 0 5 C0 3.35 0 1.7 0 0 Z " fill="#3D3A39" transform="translate(417,475)"/>
<path d="M0 0 C0.99 1.485 0.99 1.485 2 3 C1.34 3 0.68 3 0 3 C0 2.01 0 1.02 0 0 Z " fill="#3D3B3B" transform="translate(849,528)"/>
<path d="M0 0 C1 4 1 4 1 4 Z " fill="#3C3A39" transform="translate(417,506)"/>
<path d="M0 0 C1 4 1 4 1 4 Z " fill="#3D3938" transform="translate(417,482)"/>
<path d="" fill="#3D3A3A" transform="translate(0,0)"/>
<path d="M0 0 C3 1 3 1 3 1 Z " fill="#F87F2A" transform="translate(261,519)"/>
<path d="" fill="#3B3A39" transform="translate(0,0)"/>
<path d="M0 0 C0.66 0 1.32 0 2 0 C1.67 0.66 1.34 1.32 1 2 C0.67 1.34 0.34 0.68 0 0 Z " fill="#FB812A" transform="translate(275,514)"/>
<path d="M0 0 C0.66 0 1.32 0 2 0 C1.67 0.66 1.34 1.32 1 2 C0.67 1.34 0.34 0.68 0 0 Z " fill="#3A3734" transform="translate(745,507)"/>
<path d="" fill="#3D3B3A" transform="translate(0,0)"/>
<path d="M0 0 C0.66 0.66 1.32 1.32 2 2 C1.34 2 0.68 2 0 2 C0 1.34 0 0.68 0 0 Z " fill="#423C39" transform="translate(695,454)"/>
<path d="" fill="#3C3A38" transform="translate(0,0)"/>
<path d="M0 0 C3 1 3 1 3 1 Z " fill="#FE8328" transform="translate(226,446)"/>
<path d="M0 0 C2 1 2 1 2 1 Z " fill="#4E443C" transform="translate(697,551)"/>
<path d="M0 0 C2 1 2 1 2 1 Z " fill="#3F3C3D" transform="translate(810,549)"/>
<path d="" fill="#403E3E" transform="translate(0,0)"/>
<path d="M0 0 C2 1 2 1 2 1 Z " fill="#F88431" transform="translate(171,526)"/>
<path d="M0 0 C2 1 2 1 2 1 Z " fill="#F8812E" transform="translate(272,520)"/>
<path d="" fill="#77513A" transform="translate(0,0)"/>
<path d="" fill="#F88331" transform="translate(0,0)"/>
<path d="" fill="#3C3939" transform="translate(0,0)"/>
<path d="" fill="#3E3B3A" transform="translate(0,0)"/>
<path d="" fill="#F68636" transform="translate(0,0)"/>
<path d="" fill="#3C3A38" transform="translate(0,0)"/>
<path d="" fill="#F58938" transform="translate(0,0)"/>
<path d="" fill="#3C3B38" transform="translate(0,0)"/>
<path d="M0 0 C2 1 2 1 2 1 Z " fill="#FF7F27" transform="translate(238,468)"/>
<path d="" fill="#3C3A38" transform="translate(0,0)"/>
<path d="" fill="#3E3B3A" transform="translate(0,0)"/>
<path d="" fill="#3D3C3A" transform="translate(0,0)"/>
<path d="M0 0 C2 1 2 1 2 1 Z " fill="#FE8326" transform="translate(229,447)"/>
<path d="" fill="#413C3B" transform="translate(0,0)"/>
<path d="M0 0 C2 1 2 1 2 1 Z " fill="#41403F" transform="translate(854,433)"/>
<path d="M0 0 C2 1 2 1 2 1 Z " fill="#3F3E3B" transform="translate(814,432)"/>
<path d="" fill="#747575" transform="translate(0,0)"/>
<path d="" fill="#F68331" transform="translate(0,0)"/>
<path d="" fill="#F58333" transform="translate(0,0)"/>
<path d="" fill="#F98531" transform="translate(0,0)"/>
<path d="" fill="#3D3938" transform="translate(0,0)"/>
<path d="" fill="#423E3A" transform="translate(0,0)"/>
<path d="" fill="#46403D" transform="translate(0,0)"/>
<path d="" fill="#413C3B" transform="translate(0,0)"/>
<path d="" fill="#F58230" transform="translate(0,0)"/>
<path d="" fill="#4C433F" transform="translate(0,0)"/>
<path d="" fill="#443D3C" transform="translate(0,0)"/>
<path d="" fill="#403C3C" transform="translate(0,0)"/>
<path d="" fill="#78533B" transform="translate(0,0)"/>
<path d="" fill="#57493E" transform="translate(0,0)"/>
<path d="" fill="#574740" transform="translate(0,0)"/>
<path d="" fill="#3C3A39" transform="translate(0,0)"/>
<path d="" fill="#434140" transform="translate(0,0)"/>
<path d="" fill="#3F3D39" transform="translate(0,0)"/>
<path d="" fill="#413D3B" transform="translate(0,0)"/>
<path d="" fill="#615146" transform="translate(0,0)"/>
<path d="" fill="#78523B" transform="translate(0,0)"/>
<path d="" fill="#413E3B" transform="translate(0,0)"/>
<path d="" fill="#604A3C" transform="translate(0,0)"/>
<path d="" fill="#E57E38" transform="translate(0,0)"/>
<path d="" fill="#E47C37" transform="translate(0,0)"/>
<path d="" fill="#654C3E" transform="translate(0,0)"/>
<path d="" fill="#3B3838" transform="translate(0,0)"/>
<path d="" fill="#434343" transform="translate(0,0)"/>
<path d="" fill="#413B3C" transform="translate(0,0)"/>
<path d="" fill="#674E3D" transform="translate(0,0)"/>
<path d="" fill="#3E3A3A" transform="translate(0,0)"/>
<path d="" fill="#5F4738" transform="translate(0,0)"/>
<path d="" fill="#3E3E3C" transform="translate(0,0)"/>
<path d="" fill="#3B3A3C" transform="translate(0,0)"/>
<path d="" fill="#3E3D3C" transform="translate(0,0)"/>
<path d="" fill="#423F3E" transform="translate(0,0)"/>
<path d="" fill="#674C3B" transform="translate(0,0)"/>
<path d="" fill="#3C3836" transform="translate(0,0)"/>
<path d="" fill="#393736" transform="translate(0,0)"/>
<path d="" fill="#3C3836" transform="translate(0,0)"/>
<path d="" fill="#403A39" transform="translate(0,0)"/>
<path d="" fill="#3C3937" transform="translate(0,0)"/>
<path d="" fill="#403B37" transform="translate(0,0)"/>
<path d="" fill="#403B37" transform="translate(0,0)"/>
<path d="" fill="#413A39" transform="translate(0,0)"/>
<path d="" fill="#3E3B3B" transform="translate(0,0)"/>
<path d="" fill="#3E3D3D" transform="translate(0,0)"/>
<path d="" fill="#6B503D" transform="translate(0,0)"/>
<path d="" fill="#3B3838" transform="translate(0,0)"/>
<path d="" fill="#3C3A39" transform="translate(0,0)"/>
<path d="" fill="#3D393A" transform="translate(0,0)"/>
<path d="" fill="#734F3A" transform="translate(0,0)"/>
<path d="" fill="#403B38" transform="translate(0,0)"/>
<path d="" fill="#FD8129" transform="translate(0,0)"/>
<path d="" fill="#F68432" transform="translate(0,0)"/>
<path d="" fill="#79543A" transform="translate(0,0)"/>
<path d="" fill="#81573D" transform="translate(0,0)"/>
<path d="" fill="#3F3B3A" transform="translate(0,0)"/>
<path d="" fill="#EF772B" transform="translate(0,0)"/>
<path d="" fill="#FB8128" transform="translate(0,0)"/>
<path d="" fill="#FF7F27" transform="translate(0,0)"/>
<path d="" fill="#FC8129" transform="translate(0,0)"/>
<path d="" fill="#79543B" transform="translate(0,0)"/>
<path d="" fill="#423E3A" transform="translate(0,0)"/>
<path d="" fill="#774F39" transform="translate(0,0)"/>
<path d="" fill="#7A4F38" transform="translate(0,0)"/>
<path d="" fill="#474745" transform="translate(0,0)"/>
<path d="" fill="#3A3A39" transform="translate(0,0)"/>
<path d="" fill="#363536" transform="translate(0,0)"/>
<path d="" fill="#DC7733" transform="translate(0,0)"/>
<path d="" fill="#3B3838" transform="translate(0,0)"/>
<path d="" fill="#3B3A37" transform="translate(0,0)"/>
<path d="" fill="#E87D34" transform="translate(0,0)"/>
<path d="" fill="#FB8127" transform="translate(0,0)"/>
<path d="" fill="#805235" transform="translate(0,0)"/>
<path d="" fill="#FE8027" transform="translate(0,0)"/>
<path d="" fill="#FD8129" transform="translate(0,0)"/>
<path d="" fill="#FE812C" transform="translate(0,0)"/>
<path d="" fill="#FB812A" transform="translate(0,0)"/>
<path d="" fill="#3D3B39" transform="translate(0,0)"/>
<path d="" fill="#3F3B39" transform="translate(0,0)"/>
<path d="" fill="#E77C33" transform="translate(0,0)"/>
<path d="" fill="#3A3739" transform="translate(0,0)"/>
<path d="" fill="#FB7F25" transform="translate(0,0)"/>
<path d="" fill="#DC7530" transform="translate(0,0)"/>
<path d="" fill="#393734" transform="translate(0,0)"/>
<path d="" fill="#3D3B38" transform="translate(0,0)"/>
<path d="" fill="#7E4F36" transform="translate(0,0)"/>
<path d="" fill="#D87332" transform="translate(0,0)"/>
<path d="" fill="#DF752E" transform="translate(0,0)"/>
<path d="" fill="#FF832F" transform="translate(0,0)"/>
<path d="" fill="#F9842F" transform="translate(0,0)"/>
<path d="" fill="#E1762D" transform="translate(0,0)"/>
<path d="" fill="#3E3D3E" transform="translate(0,0)"/>
<path d="" fill="#3E3F3C" transform="translate(0,0)"/>
<path d="" fill="#413C3A" transform="translate(0,0)"/>
<path d="" fill="#423B3A" transform="translate(0,0)"/>
<path d="" fill="#FC8028" transform="translate(0,0)"/>
<path d="" fill="#FE8229" transform="translate(0,0)"/>
<path d="" fill="#F6802C" transform="translate(0,0)"/>
<path d="" fill="#FC8129" transform="translate(0,0)"/>
<path d="" fill="#7F5336" transform="translate(0,0)"/>
<path d="" fill="#FE8228" transform="translate(0,0)"/>
<path d="" fill="#403E3D" transform="translate(0,0)"/>
<path d="" fill="#FD8128" transform="translate(0,0)"/>
<path d="" fill="#FE8128" transform="translate(0,0)"/>
<path d="" fill="#FE7F27" transform="translate(0,0)"/>
<path d="" fill="#FF812A" transform="translate(0,0)"/>
<path d="" fill="#3F3D3C" transform="translate(0,0)"/>
<path d="" fill="#3D3C3C" transform="translate(0,0)"/>
<path d="" fill="#3F3C3A" transform="translate(0,0)"/>
<path d="" fill="#F88432" transform="translate(0,0)"/>
<path d="" fill="#3C3838" transform="translate(0,0)"/>
<path d="" fill="#3C3A3A" transform="translate(0,0)"/>
<path d="" fill="#F87E2A" transform="translate(0,0)"/>
<path d="" fill="#FD802A" transform="translate(0,0)"/>
<path d="" fill="#FF8428" transform="translate(0,0)"/>
<path d="" fill="#413D39" transform="translate(0,0)"/>
<path d="" fill="#FF8328" transform="translate(0,0)"/>
<path d="" fill="#ED8138" transform="translate(0,0)"/>
<path d="" fill="#FA842E" transform="translate(0,0)"/>
<path d="" fill="#FF8228" transform="translate(0,0)"/>
<path d="" fill="#FD8129" transform="translate(0,0)"/>
<path d="" fill="#F38739" transform="translate(0,0)"/>
<path d="" fill="#3D3A3C" transform="translate(0,0)"/>
<path d="" fill="#423C39" transform="translate(0,0)"/>
<path d="" fill="#F88128" transform="translate(0,0)"/>
<path d="" fill="#E07732" transform="translate(0,0)"/>
<path d="" fill="#403B3E" transform="translate(0,0)"/>
<path d="" fill="#3D3A38" transform="translate(0,0)"/>
<path d="" fill="#443D3A" transform="translate(0,0)"/>
<path d="" fill="#3B3A3B" transform="translate(0,0)"/>
<path d="" fill="#3B3734" transform="translate(0,0)"/>
<path d="" fill="#FE822A" transform="translate(0,0)"/>
<path d="" fill="#423D3B" transform="translate(0,0)"/>
<path d="" fill="#3F3D3A" transform="translate(0,0)"/>
<path d="" fill="#403C3B" transform="translate(0,0)"/>
<path d="" fill="#FD842D" transform="translate(0,0)"/>
<path d="" fill="#3F3D3B" transform="translate(0,0)"/>
<path d="" fill="#E27730" transform="translate(0,0)"/>
<path d="" fill="#F9832A" transform="translate(0,0)"/>
<path d="" fill="#FE832A" transform="translate(0,0)"/>
<path d="" fill="#FE7F26" transform="translate(0,0)"/>
<path d="" fill="#FF8127" transform="translate(0,0)"/>
<path d="" fill="#FF8128" transform="translate(0,0)"/>
<path d="" fill="#CA7339" transform="translate(0,0)"/>
<path d="" fill="#44413D" transform="translate(0,0)"/>
<path d="" fill="#79533A" transform="translate(0,0)"/>
<path d="" fill="#E27B34" transform="translate(0,0)"/>
<path d="" fill="#424040" transform="translate(0,0)"/>
<path d="" fill="#784F39" transform="translate(0,0)"/>
<path d="" fill="#41403D" transform="translate(0,0)"/>
<path d="" fill="#43403D" transform="translate(0,0)"/>
<path d="" fill="#604A41" transform="translate(0,0)"/>
<path d="" fill="#58483E" transform="translate(0,0)"/>
<path d="" fill="#46413F" transform="translate(0,0)"/>
<path d="" fill="#47413E" transform="translate(0,0)"/>
<path d="" fill="#40403F" transform="translate(0,0)"/>
<path d="" fill="#42413E" transform="translate(0,0)"/>
<path d="" fill="#413D3A" transform="translate(0,0)"/>
<path d="" fill="#5C4A3E" transform="translate(0,0)"/>
<path d="" fill="#51443C" transform="translate(0,0)"/>
<path d="" fill="#4B4039" transform="translate(0,0)"/>
<path d="" fill="#3F3C3C" transform="translate(0,0)"/>
<path d="" fill="#5F4E41" transform="translate(0,0)"/>
<path d="" fill="#76543E" transform="translate(0,0)"/>
<path d="" fill="#E88238" transform="translate(0,0)"/>
<path d="" fill="#EC853B" transform="translate(0,0)"/>
<path d="" fill="#F38736" transform="translate(0,0)"/>
<path d="" fill="#ED8234" transform="translate(0,0)"/>
</svg>
